<mxfile host="65bd71144e">
    <diagram id="OzyOfjKePgK2Kka0ILB-" name="Page-1">
        <mxGraphModel dx="942" dy="522" grid="1" gridSize="10" guides="1" tooltips="1" connect="1" arrows="1" fold="1" page="1" pageScale="1" pageWidth="827" pageHeight="1169" math="0" shadow="0">
            <root>
                <mxCell id="0"/>
                <mxCell id="1" parent="0"/>
                <mxCell id="lVFujl7vvUWovAULhIDM-63" value="" style="rounded=0;whiteSpace=wrap;html=1;dashed=1;dashPattern=8 8;fillColor=default;" parent="1" vertex="1">
                    <mxGeometry x="10" y="198" width="780" height="302" as="geometry"/>
                </mxCell>
                <mxCell id="lVFujl7vvUWovAULhIDM-58" value="" style="rounded=0;whiteSpace=wrap;html=1;dashed=1;dashPattern=8 8;fillColor=default;" parent="1" vertex="1">
                    <mxGeometry x="30" y="60" width="160" height="530" as="geometry"/>
                </mxCell>
                <mxCell id="lVFujl7vvUWovAULhIDM-27" value="" style="edgeStyle=orthogonalEdgeStyle;rounded=0;orthogonalLoop=1;jettySize=auto;html=1;" parent="1" source="lVFujl7vvUWovAULhIDM-14" target="lVFujl7vvUWovAULhIDM-26" edge="1">
                    <mxGeometry relative="1" as="geometry"/>
                </mxCell>
                <mxCell id="lVFujl7vvUWovAULhIDM-14" value="couse1" style="rounded=0;whiteSpace=wrap;html=1;" parent="1" vertex="1">
                    <mxGeometry x="50" y="80" width="120" height="60" as="geometry"/>
                </mxCell>
                <mxCell id="lVFujl7vvUWovAULhIDM-29" value="" style="edgeStyle=orthogonalEdgeStyle;rounded=0;orthogonalLoop=1;jettySize=auto;html=1;" parent="1" source="lVFujl7vvUWovAULhIDM-26" target="lVFujl7vvUWovAULhIDM-28" edge="1">
                    <mxGeometry relative="1" as="geometry"/>
                </mxCell>
                <mxCell id="lVFujl7vvUWovAULhIDM-26" value="Course.prototype" style="rounded=0;whiteSpace=wrap;html=1;" parent="1" vertex="1">
                    <mxGeometry x="50" y="220" width="120" height="60" as="geometry"/>
                </mxCell>
                <mxCell id="lVFujl7vvUWovAULhIDM-31" value="" style="edgeStyle=orthogonalEdgeStyle;rounded=0;orthogonalLoop=1;jettySize=auto;html=1;" parent="1" source="lVFujl7vvUWovAULhIDM-28" target="lVFujl7vvUWovAULhIDM-30" edge="1">
                    <mxGeometry relative="1" as="geometry"/>
                </mxCell>
                <mxCell id="lVFujl7vvUWovAULhIDM-28" value="Object.prototype" style="rounded=0;whiteSpace=wrap;html=1;" parent="1" vertex="1">
                    <mxGeometry x="50" y="360" width="120" height="60" as="geometry"/>
                </mxCell>
                <mxCell id="lVFujl7vvUWovAULhIDM-30" value="null" style="rounded=0;whiteSpace=wrap;html=1;" parent="1" vertex="1">
                    <mxGeometry x="50" y="507" width="120" height="60" as="geometry"/>
                </mxCell>
                <mxCell id="lVFujl7vvUWovAULhIDM-33" value="" style="edgeStyle=orthogonalEdgeStyle;rounded=0;orthogonalLoop=1;jettySize=auto;html=1;" parent="1" source="lVFujl7vvUWovAULhIDM-32" target="lVFujl7vvUWovAULhIDM-26" edge="1">
                    <mxGeometry relative="1" as="geometry"/>
                </mxCell>
                <mxCell id="lVFujl7vvUWovAULhIDM-45" value="" style="edgeStyle=orthogonalEdgeStyle;rounded=0;orthogonalLoop=1;jettySize=auto;html=1;" parent="1" source="lVFujl7vvUWovAULhIDM-32" target="lVFujl7vvUWovAULhIDM-42" edge="1">
                    <mxGeometry relative="1" as="geometry"/>
                </mxCell>
                <mxCell id="lVFujl7vvUWovAULhIDM-32" value="Course" style="rounded=0;whiteSpace=wrap;html=1;" parent="1" vertex="1">
                    <mxGeometry x="270" y="220" width="120" height="60" as="geometry"/>
                </mxCell>
                <mxCell id="lVFujl7vvUWovAULhIDM-34" value="" style="endArrow=classic;html=1;rounded=0;exitX=1;exitY=0.75;exitDx=0;exitDy=0;entryX=0;entryY=0.75;entryDx=0;entryDy=0;" parent="1" source="lVFujl7vvUWovAULhIDM-26" target="lVFujl7vvUWovAULhIDM-32" edge="1">
                    <mxGeometry width="50" height="50" relative="1" as="geometry">
                        <mxPoint x="280" y="350" as="sourcePoint"/>
                        <mxPoint x="330" y="300" as="targetPoint"/>
                    </mxGeometry>
                </mxCell>
                <mxCell id="lVFujl7vvUWovAULhIDM-35" value="prototype" style="text;html=1;align=center;verticalAlign=middle;resizable=0;points=[];autosize=1;strokeColor=none;fillColor=none;" parent="1" vertex="1">
                    <mxGeometry x="185" y="228" width="70" height="30" as="geometry"/>
                </mxCell>
                <mxCell id="lVFujl7vvUWovAULhIDM-36" value="constructor" style="text;html=1;align=center;verticalAlign=middle;resizable=0;points=[];autosize=1;strokeColor=none;fillColor=none;" parent="1" vertex="1">
                    <mxGeometry x="180" y="258" width="80" height="30" as="geometry"/>
                </mxCell>
                <mxCell id="lVFujl7vvUWovAULhIDM-37" value="" style="edgeStyle=orthogonalEdgeStyle;rounded=0;orthogonalLoop=1;jettySize=auto;html=1;" parent="1" source="lVFujl7vvUWovAULhIDM-38" edge="1">
                    <mxGeometry relative="1" as="geometry">
                        <mxPoint x="170" y="386" as="targetPoint"/>
                    </mxGeometry>
                </mxCell>
                <mxCell id="lVFujl7vvUWovAULhIDM-38" value="Object" style="rounded=0;whiteSpace=wrap;html=1;" parent="1" vertex="1">
                    <mxGeometry x="270" y="356" width="120" height="60" as="geometry"/>
                </mxCell>
                <mxCell id="lVFujl7vvUWovAULhIDM-39" value="" style="endArrow=classic;html=1;rounded=0;exitX=1;exitY=0.75;exitDx=0;exitDy=0;entryX=0;entryY=0.75;entryDx=0;entryDy=0;" parent="1" target="lVFujl7vvUWovAULhIDM-38" edge="1">
                    <mxGeometry width="50" height="50" relative="1" as="geometry">
                        <mxPoint x="170" y="401" as="sourcePoint"/>
                        <mxPoint x="330" y="436" as="targetPoint"/>
                    </mxGeometry>
                </mxCell>
                <mxCell id="lVFujl7vvUWovAULhIDM-40" value="prototype" style="text;html=1;align=center;verticalAlign=middle;resizable=0;points=[];autosize=1;strokeColor=none;fillColor=none;" parent="1" vertex="1">
                    <mxGeometry x="185" y="364" width="70" height="30" as="geometry"/>
                </mxCell>
                <mxCell id="lVFujl7vvUWovAULhIDM-41" value="constructor" style="text;html=1;align=center;verticalAlign=middle;resizable=0;points=[];autosize=1;strokeColor=none;fillColor=none;" parent="1" vertex="1">
                    <mxGeometry x="180" y="394" width="80" height="30" as="geometry"/>
                </mxCell>
                <mxCell id="lVFujl7vvUWovAULhIDM-42" value="Function.prototype" style="rounded=0;whiteSpace=wrap;html=1;" parent="1" vertex="1">
                    <mxGeometry x="640" y="290" width="120" height="60" as="geometry"/>
                </mxCell>
                <mxCell id="lVFujl7vvUWovAULhIDM-46" value="__proto__" style="text;html=1;align=center;verticalAlign=middle;resizable=0;points=[];autosize=1;strokeColor=none;fillColor=none;" parent="1" vertex="1">
                    <mxGeometry x="490" y="208" width="80" height="30" as="geometry"/>
                </mxCell>
                <mxCell id="lVFujl7vvUWovAULhIDM-47" value="" style="endArrow=classic;html=1;rounded=0;exitX=1;exitY=0.5;exitDx=0;exitDy=0;entryX=0.5;entryY=1;entryDx=0;entryDy=0;" parent="1" source="lVFujl7vvUWovAULhIDM-38" target="lVFujl7vvUWovAULhIDM-42" edge="1">
                    <mxGeometry width="50" height="50" relative="1" as="geometry">
                        <mxPoint x="420" y="350" as="sourcePoint"/>
                        <mxPoint x="470" y="300" as="targetPoint"/>
                        <Array as="points">
                            <mxPoint x="700" y="386"/>
                        </Array>
                    </mxGeometry>
                </mxCell>
                <mxCell id="lVFujl7vvUWovAULhIDM-48" value="__proto__" style="text;html=1;align=center;verticalAlign=middle;resizable=0;points=[];autosize=1;strokeColor=none;fillColor=none;" parent="1" vertex="1">
                    <mxGeometry x="490" y="400" width="80" height="30" as="geometry"/>
                </mxCell>
                <mxCell id="lVFujl7vvUWovAULhIDM-49" value="constructor" style="text;html=1;align=center;verticalAlign=middle;resizable=0;points=[];autosize=1;strokeColor=none;fillColor=none;" parent="1" vertex="1">
                    <mxGeometry x="334" y="290" width="80" height="30" as="geometry"/>
                </mxCell>
                <mxCell id="lVFujl7vvUWovAULhIDM-50" value="" style="endArrow=none;html=1;rounded=0;exitX=0.5;exitY=0;exitDx=0;exitDy=0;entryX=0.5;entryY=1;entryDx=0;entryDy=0;" parent="1" source="lVFujl7vvUWovAULhIDM-38" target="lVFujl7vvUWovAULhIDM-32" edge="1">
                    <mxGeometry width="50" height="50" relative="1" as="geometry">
                        <mxPoint x="420" y="350" as="sourcePoint"/>
                        <mxPoint x="470" y="300" as="targetPoint"/>
                    </mxGeometry>
                </mxCell>
                <mxCell id="lVFujl7vvUWovAULhIDM-51" value="" style="endArrow=classic;html=1;rounded=0;" parent="1" target="lVFujl7vvUWovAULhIDM-52" edge="1">
                    <mxGeometry width="50" height="50" relative="1" as="geometry">
                        <mxPoint x="330" y="320" as="sourcePoint"/>
                        <mxPoint x="440" y="320" as="targetPoint"/>
                        <Array as="points"/>
                    </mxGeometry>
                </mxCell>
                <mxCell id="lVFujl7vvUWovAULhIDM-53" value="" style="edgeStyle=orthogonalEdgeStyle;rounded=0;orthogonalLoop=1;jettySize=auto;html=1;" parent="1" source="lVFujl7vvUWovAULhIDM-52" target="lVFujl7vvUWovAULhIDM-42" edge="1">
                    <mxGeometry relative="1" as="geometry"/>
                </mxCell>
                <mxCell id="lVFujl7vvUWovAULhIDM-52" value="Function" style="rounded=0;whiteSpace=wrap;html=1;" parent="1" vertex="1">
                    <mxGeometry x="430" y="290" width="120" height="60" as="geometry"/>
                </mxCell>
                <mxCell id="lVFujl7vvUWovAULhIDM-54" value="prototype" style="text;html=1;align=center;verticalAlign=middle;resizable=0;points=[];autosize=1;strokeColor=none;fillColor=none;" parent="1" vertex="1">
                    <mxGeometry x="555" y="288" width="70" height="30" as="geometry"/>
                </mxCell>
                <mxCell id="lVFujl7vvUWovAULhIDM-55" value="" style="endArrow=classic;html=1;rounded=0;exitX=0.75;exitY=1;exitDx=0;exitDy=0;entryX=0.75;entryY=1;entryDx=0;entryDy=0;" parent="1" source="lVFujl7vvUWovAULhIDM-42" target="lVFujl7vvUWovAULhIDM-28" edge="1">
                    <mxGeometry width="50" height="50" relative="1" as="geometry">
                        <mxPoint x="420" y="350" as="sourcePoint"/>
                        <mxPoint x="470" y="300" as="targetPoint"/>
                        <Array as="points">
                            <mxPoint x="730" y="460"/>
                            <mxPoint x="140" y="460"/>
                        </Array>
                    </mxGeometry>
                </mxCell>
                <mxCell id="lVFujl7vvUWovAULhIDM-57" value="__proto__" style="text;html=1;align=center;verticalAlign=middle;resizable=0;points=[];autosize=1;strokeColor=none;fillColor=none;" parent="1" vertex="1">
                    <mxGeometry x="380" y="468" width="80" height="30" as="geometry"/>
                </mxCell>
                <mxCell id="lVFujl7vvUWovAULhIDM-59" value="__proto__" style="text;html=1;align=center;verticalAlign=middle;resizable=0;points=[];autosize=1;strokeColor=none;fillColor=none;" parent="1" vertex="1">
                    <mxGeometry x="40" y="168" width="80" height="30" as="geometry"/>
                </mxCell>
                <mxCell id="lVFujl7vvUWovAULhIDM-60" value="__proto__" style="text;html=1;align=center;verticalAlign=middle;resizable=0;points=[];autosize=1;strokeColor=none;fillColor=none;" parent="1" vertex="1">
                    <mxGeometry x="40" y="305" width="80" height="30" as="geometry"/>
                </mxCell>
                <mxCell id="lVFujl7vvUWovAULhIDM-61" value="__proto__" style="text;html=1;align=center;verticalAlign=middle;resizable=0;points=[];autosize=1;strokeColor=none;fillColor=none;" parent="1" vertex="1">
                    <mxGeometry x="40" y="450" width="80" height="30" as="geometry"/>
                </mxCell>
                <mxCell id="lVFujl7vvUWovAULhIDM-62" value="原型链" style="text;html=1;align=center;verticalAlign=middle;resizable=0;points=[];autosize=1;strokeColor=none;fillColor=none;" parent="1" vertex="1">
                    <mxGeometry x="400" y="108" width="60" height="30" as="geometry"/>
                </mxCell>
                <mxCell id="lVFujl7vvUWovAULhIDM-65" value="&lt;div&gt;course1.__proto__.__proto__ === Object.prototype&lt;/div&gt;&lt;div style=&quot;text-align: left;&quot;&gt;&lt;div&gt;Course.prototype.__proto__ === Object.prototype&lt;/div&gt;&lt;div&gt;&lt;br&gt;&lt;/div&gt;&lt;/div&gt;" style="text;html=1;align=center;verticalAlign=middle;resizable=0;points=[];autosize=1;strokeColor=none;fillColor=none;" parent="1" vertex="1">
                    <mxGeometry x="230" y="593" width="300" height="60" as="geometry"/>
                </mxCell>
                <mxCell id="2" value="" style="edgeStyle=none;orthogonalLoop=1;jettySize=auto;html=1;entryX=1;entryY=0.75;entryDx=0;entryDy=0;exitX=0;exitY=0.75;exitDx=0;exitDy=0;" parent="1" source="lVFujl7vvUWovAULhIDM-42" target="lVFujl7vvUWovAULhIDM-52" edge="1">
                    <mxGeometry width="100" relative="1" as="geometry">
                        <mxPoint x="540" y="370" as="sourcePoint"/>
                        <mxPoint x="640" y="370" as="targetPoint"/>
                        <Array as="points"/>
                    </mxGeometry>
                </mxCell>
                <mxCell id="3" value="constructor" style="text;html=1;align=center;verticalAlign=middle;resizable=0;points=[];autosize=1;strokeColor=none;fillColor=none;" parent="1" vertex="1">
                    <mxGeometry x="555" y="335" width="80" height="30" as="geometry"/>
                </mxCell>
            </root>
        </mxGraphModel>
    </diagram>
</mxfile>